<svg width="1924" height="523" viewBox="0 0 1924 523" fill="none" xmlns="http://www.w3.org/2000/svg">
<path d="M72.8439 76.0919C75.7801 73.005 80.7705 73.4109 83.2801 76.8536L138.235 152.243C141.016 156.058 146.707 156.058 149.488 152.243L258.38 2.86131C261.161 -0.953774 266.852 -0.953768 269.633 2.86132L378.525 152.243C381.306 156.058 386.997 156.058 389.778 152.243L445.235 76.1644C447.739 72.7298 452.714 72.3161 455.655 75.385C501.193 122.911 529.173 187.395 529.173 258.413C529.173 404.541 410.714 523 264.587 523C118.459 523 0 404.541 0 258.413C0 187.746 27.7042 123.549 72.8439 76.0919Z" fill="#E60000"/>
<path d="M746.163 234.619C727.88 234.619 711.425 230.797 696.799 223.151C682.339 215.339 670.954 204.536 662.643 190.741C654.333 176.945 650.178 161.322 650.178 143.87C650.178 126.418 654.333 110.795 662.643 96.9994C670.954 83.2042 682.339 72.4838 696.799 64.8382C711.425 57.0265 727.88 53.1206 746.163 53.1206C762.119 53.1206 776.496 55.9461 789.294 61.5972C802.092 67.2483 812.729 75.3924 821.205 86.0297L789.792 114.451C778.49 100.822 764.778 94.0077 748.656 94.0077C739.182 94.0077 730.705 96.0853 723.226 100.24C715.913 104.396 710.179 110.296 706.023 117.942C702.035 125.421 700.04 134.064 700.04 143.87C700.04 153.676 702.035 162.402 706.023 170.048C710.179 177.527 715.913 183.344 723.226 187.499C730.705 191.655 739.182 193.732 748.656 193.732C764.778 193.732 778.49 186.918 789.792 173.289L821.205 201.71C812.729 212.348 802.092 220.492 789.294 226.143C776.496 231.794 762.119 234.619 746.163 234.619Z" fill="black"/>
<path d="M932.556 234.619C914.107 234.619 897.486 230.713 882.694 222.902C868.067 215.09 856.516 204.286 848.039 190.491C839.729 176.696 835.574 161.156 835.574 143.87C835.574 126.584 839.729 111.044 848.039 97.2487C856.516 83.4535 868.067 72.65 882.694 64.8382C897.486 57.0265 914.107 53.1206 932.556 53.1206C951.005 53.1206 967.543 57.0265 982.169 64.8382C996.961 72.65 1008.51 83.4535 1016.82 97.2487C1025.3 111.044 1029.54 126.584 1029.54 143.87C1029.54 161.156 1025.3 176.696 1016.82 190.491C1008.51 204.286 996.961 215.09 982.169 222.902C967.543 230.713 951.005 234.619 932.556 234.619ZM932.556 193.732C941.365 193.732 949.343 191.655 956.49 187.499C963.637 183.344 969.288 177.527 973.443 170.048C977.598 162.402 979.676 153.676 979.676 143.87C979.676 134.064 977.598 125.421 973.443 117.942C969.288 110.296 963.637 104.396 956.49 100.24C949.343 96.0853 941.365 94.0077 932.556 94.0077C923.747 94.0077 915.769 96.0853 908.622 100.24C901.475 104.396 895.824 110.296 891.669 117.942C887.514 125.421 885.436 134.064 885.436 143.87C885.436 153.676 887.514 162.402 891.669 170.048C895.824 177.527 901.475 183.344 908.622 187.499C915.769 191.655 923.747 193.732 932.556 193.732Z" fill="black"/>
<path d="M1060.38 56.611H1109.74V191.987H1193.01V231.129H1060.38V56.611Z" fill="black"/>
<path d="M1217.53 56.611H1266.9V231.129H1217.53V56.611Z" fill="black"/>
<path d="M1473.04 56.611V231.129H1432.41L1355.37 138.136V231.129H1307V56.611H1347.64L1424.68 149.604V56.611H1473.04Z" fill="black"/>
<path d="M1652.96 192.984V231.129H1512.85V56.611H1649.72V94.7556H1561.71V124.174H1639.25V161.072H1561.71V192.984H1652.96Z" fill="black"/>
<path d="M934.14 476.141C915.691 476.141 899.07 472.235 884.277 464.424C869.651 456.612 858.1 445.808 849.623 432.013C841.313 418.218 837.157 402.677 837.157 385.392C837.157 368.106 841.313 352.566 849.623 338.771C858.1 324.975 869.651 314.172 884.277 306.36C899.07 298.548 915.691 294.642 934.14 294.642C952.589 294.642 969.126 298.548 983.753 306.36C998.545 314.172 1010.1 324.975 1018.41 338.771C1026.88 352.566 1031.12 368.106 1031.12 385.392C1031.12 402.677 1026.88 418.218 1018.41 432.013C1010.1 445.808 998.545 456.612 983.753 464.424C969.126 472.235 952.589 476.141 934.14 476.141ZM934.14 435.254C942.949 435.254 950.927 433.176 958.073 429.021C965.22 424.866 970.871 419.049 975.027 411.57C979.182 403.924 981.259 395.198 981.259 385.392C981.259 375.586 979.182 366.943 975.027 359.463C970.871 351.818 965.22 345.918 958.073 341.762C950.927 337.607 942.949 335.53 934.14 335.53C925.331 335.53 917.353 337.607 910.206 341.762C903.059 345.918 897.408 351.818 893.252 359.463C889.097 366.943 887.02 375.586 887.02 385.392C887.02 395.198 889.097 403.924 893.252 411.57C897.408 419.049 903.059 424.866 910.206 429.021C917.353 433.176 925.331 435.254 934.14 435.254Z" fill="black"/>
<path d="M1061.96 298.133H1111.33V433.509H1194.6V472.651H1061.96V298.133Z" fill="black"/>
<path d="M1219.12 298.133H1268.48V472.651H1219.12V298.133Z" fill="black"/>
<path d="M1485.11 298.133L1410.32 472.651H1361.7L1287.16 298.133H1340.51L1387.88 411.819L1436.24 298.133H1485.11Z" fill="black"/>
<path d="M1500.31 298.133H1549.68V472.651H1500.31V298.133Z" fill="black"/>
<path d="M1729.89 434.506V472.651H1589.78V298.133H1726.65V336.277H1638.65V365.696H1716.18V402.594H1638.65V434.506H1729.89Z" fill="black"/>
<path d="M1838.56 426.279H1811.64V472.651H1762.27V298.133H1842.05C1857.84 298.133 1871.56 300.792 1883.19 306.111C1894.82 311.263 1903.8 318.743 1910.12 328.549C1916.43 338.189 1919.59 349.574 1919.59 362.704C1919.59 375.336 1916.6 386.389 1910.61 395.863C1904.8 405.171 1896.4 412.484 1885.43 417.802L1923.08 472.651H1870.23L1838.56 426.279ZM1869.73 362.704C1869.73 354.56 1867.15 348.244 1862 343.757C1856.85 339.269 1849.2 337.025 1839.06 337.025H1811.64V388.134H1839.06C1849.2 388.134 1856.85 385.974 1862 381.652C1867.15 377.165 1869.73 370.849 1869.73 362.704Z" fill="black"/>
</svg>
